<svg width="768" height="769" viewBox="0 0 768 769" fill="none" xmlns="http://www.w3.org/2000/svg">
<rect x="515.388" y="435.388" width="45.9358" height="113" rx="15" transform="rotate(45 515.388 435.388)" fill="black"/>
<circle cx="711.5" cy="711.5" r="56.5" fill="black"/>
<rect width="228.733" height="113.137" rx="25" transform="matrix(-0.707107 -0.707107 -0.707107 0.707107 716.568 636.568)" fill="black"/>
<rect width="220.949" height="113" transform="matrix(-0.707107 -0.707107 -0.707107 0.707107 751.616 671.616)" fill="black"/>
<path fill-rule="evenodd" clip-rule="evenodd" d="M250 563.959C223.564 570.643 204 594.587 204 623.101V707.101C204 740.79 231.311 768.101 265 768.101H285C318.689 768.101 346 740.79 346 707.101V623.101C346 594.587 326.436 570.643 300 563.959V608.404C303.712 612.191 306 617.379 306 623.101V707.101C306 718.699 296.598 728.101 285 728.101H265C253.402 728.101 244 718.699 244 707.101V623.101C244 617.379 246.288 612.191 250 608.404V563.959Z" fill="black"/>
<rect x="274" y="468" width="2" height="154" rx="1" stroke="black" stroke-width="40"/>
<rect x="459" y="264" width="21" height="145" rx="10.5" transform="rotate(90 459 264)" stroke="black" stroke-width="40"/>
<rect x="235" y="264" width="21" height="145" rx="10.5" transform="rotate(90 235 264)" stroke="black" stroke-width="40"/>
<path fill-rule="evenodd" clip-rule="evenodd" d="M399.255 240C395.764 207.393 368.161 182 334.627 182L215.627 182C182.094 182 154.491 207.393 151 240H189.544C192.627 228.482 203.137 220 215.627 220L334.627 220C347.118 220 357.628 228.482 360.711 240H399.255ZM399.14 308H360.423C357.013 319.006 346.754 327 334.627 327H215.627C203.501 327 193.242 319.006 189.832 308H151.115C155.058 340.124 182.438 365 215.627 365H334.627C367.817 365 395.197 340.124 399.14 308Z" fill="black"/>
<path fill-rule="evenodd" clip-rule="evenodd" d="M300 483.527C404.195 471.168 485 382.52 485 275C485 159.02 390.98 65 275 65C159.02 65 65 159.02 65 275C65 382.52 145.805 471.168 250 483.527V548.879C109.838 536.248 0 418.451 0 275C0 123.122 123.122 0 275 0C426.878 0 550 123.122 550 275C550 418.451 440.163 536.248 300 548.879V483.527Z" fill="black"/>
</svg>
