<svg width="636" height="587" viewBox="0 0 636 587" fill="none" xmlns="http://www.w3.org/2000/svg">
<path fill-rule="evenodd" clip-rule="evenodd" d="M331.8 44.1663C390.022 -14.0555 484.418 -14.0554 542.64 44.1663C599.374 100.9 600.824 191.984 546.989 250.473C540.111 238.613 531.787 227.685 522.257 217.927C556.77 175.091 554.136 112.231 514.356 72.4506C471.755 29.8498 402.685 29.8498 360.084 72.4506L268.434 164.101C264.678 167.857 261.253 171.819 258.159 175.95C242.04 174.78 225.786 175.891 209.922 179.281C217.113 163.532 227.189 148.778 240.15 135.816L331.8 44.1663ZM245.257 284.172C241.764 276.003 239.314 267.494 237.907 258.849C224.535 260.042 211.384 264.298 199.595 271.616C205.14 298.384 218.097 323.923 238.467 344.946C238.157 340.837 238 336.687 238 332.5C238 315.682 240.539 299.453 245.257 284.172Z" fill="black"/>
<path fill-rule="evenodd" clip-rule="evenodd" d="M295.899 207.509C242.255 186.18 178.729 197.223 135.316 240.636L43.6663 332.286C-14.5555 390.507 -14.5554 484.904 43.6663 543.125C101.888 601.347 196.284 601.347 254.506 543.125L321.953 475.678C310.117 469.004 299.19 460.921 289.403 451.66L226.222 514.841C183.621 557.442 114.551 557.442 71.9506 514.841C29.3498 472.24 29.3498 403.171 71.9506 360.57L163.601 268.92C191.525 240.995 230.823 231.375 266.583 240.059C274.872 227.955 284.742 217.007 295.899 207.509Z" fill="black"/>
<circle cx="615.011" cy="542.929" r="20" fill="black"/>
<rect width="158.656" height="40" transform="matrix(-0.707107 -0.707106 -0.707107 0.707106 629.471 529.187)" fill="black"/>
<path fill-rule="evenodd" clip-rule="evenodd" d="M403.5 437C461.214 437 508 390.214 508 332.5C508 274.786 461.214 228 403.5 228C345.786 228 299 274.786 299 332.5C299 390.214 345.786 437 403.5 437ZM403.5 477C483.305 477 548 412.305 548 332.5C548 252.695 483.305 188 403.5 188C323.695 188 259 252.695 259 332.5C259 412.305 323.695 477 403.5 477Z" fill="black"/>
</svg>
