<svg width="616" height="587" viewBox="0 0 616 587" fill="none" xmlns="http://www.w3.org/2000/svg">
<path fill-rule="evenodd" clip-rule="evenodd" d="M331.8 44.1663C390.022 -14.0555 484.418 -14.0554 542.64 44.1663C600.862 102.388 600.862 196.784 542.64 255.006L540.139 257.507C533.034 246.043 524.456 235.588 514.67 226.406C556.956 183.78 556.851 114.946 514.356 72.4506C471.755 29.8498 402.685 29.8498 360.084 72.4506L268.434 164.101C264.678 167.857 261.253 171.819 258.159 175.95C242.04 174.78 225.786 175.891 209.922 179.281C217.113 163.532 227.189 148.778 240.15 135.816L331.8 44.1663ZM259.809 308.669C248.099 293.815 240.799 276.621 237.907 258.849C224.535 260.042 211.384 264.298 199.595 271.616C205.291 299.115 218.809 325.315 240.15 346.656C246.074 352.581 252.373 357.902 258.971 362.621C257.674 354.605 257 346.381 257 338C257 327.968 257.965 318.162 259.809 308.669Z" fill="black"/>
<path fill-rule="evenodd" clip-rule="evenodd" d="M315.966 217.299C258.86 183.883 184.291 191.661 135.316 240.636L43.6663 332.286C-14.5555 390.507 -14.5554 484.904 43.6663 543.125C101.888 601.347 196.284 601.347 254.506 543.125L329.498 468.134C318.035 461.028 307.581 452.45 298.399 442.664L226.222 514.841C183.621 557.442 114.551 557.442 71.9506 514.841C29.3498 472.24 29.3498 403.171 71.9506 360.57L163.601 268.92C196.937 235.584 246.48 228.334 286.866 247.17C295.165 235.939 304.963 225.883 315.966 217.299Z" fill="black"/>
<circle cx="595.011" cy="522.929" r="20" fill="black"/>
<rect width="158.656" height="40" transform="matrix(-0.707107 -0.707106 -0.707107 0.707106 609.471 509.187)" fill="black"/>
<path fill-rule="evenodd" clip-rule="evenodd" d="M409.5 430C460.586 430 502 388.586 502 337.5C502 286.414 460.586 245 409.5 245C358.414 245 317 286.414 317 337.5C317 388.586 358.414 430 409.5 430ZM409.5 470C482.678 470 542 410.678 542 337.5C542 264.322 482.678 205 409.5 205C336.322 205 277 264.322 277 337.5C277 410.678 336.322 470 409.5 470Z" fill="black"/>
</svg>
