<svg width="602" height="587" viewBox="0 0 602 587" fill="none" xmlns="http://www.w3.org/2000/svg">
<path fill-rule="evenodd" clip-rule="evenodd" d="M331.8 44.1663C390.022 -14.0555 484.418 -14.0554 542.64 44.1663C600.862 102.388 600.862 196.784 542.64 255.006L529.104 268.542C520.697 258.119 510.682 249.03 499.432 241.645L514.356 226.722C556.956 184.121 556.956 115.051 514.356 72.4506C471.755 29.8498 402.685 29.8498 360.084 72.4506L268.434 164.101C261.414 171.121 255.55 178.86 250.844 187.082C235.339 186.587 219.776 188.346 204.687 192.36C211.836 171.706 223.657 152.31 240.15 135.816L331.8 44.1663ZM299.792 340.285C288.436 335.038 277.796 327.733 268.434 318.372C248.706 298.643 238.114 273.238 236.658 247.414C223.123 248.652 209.794 252.665 197.594 259.452C201.496 291.329 215.681 322.187 240.15 346.656C258.77 365.276 281.09 377.941 304.744 384.652C301.351 373.187 299.531 361.055 299.531 348.5C299.531 345.74 299.619 343.001 299.792 340.285Z" fill="black"/>
<path fill-rule="evenodd" clip-rule="evenodd" d="M346.156 240.636C287.934 182.414 193.538 182.414 135.316 240.636L43.6663 332.286C-14.5555 390.507 -14.5554 484.904 43.6663 543.125C101.888 601.347 196.284 601.347 254.506 543.125L346.156 451.475C346.977 450.654 347.787 449.826 348.585 448.99C338.012 440.695 328.779 430.79 321.262 419.648C320.164 420.848 319.034 422.029 317.872 423.191L226.222 514.841C183.621 557.442 114.551 557.442 71.9506 514.841C29.3498 472.24 29.3498 403.171 71.9506 360.57L163.601 268.92C206.201 226.319 275.271 226.319 317.872 268.92C319.718 270.766 321.484 272.662 323.17 274.603C330.969 263.669 340.452 254.003 351.245 245.978C349.601 244.166 347.905 242.384 346.156 240.636Z" fill="black"/>
<circle cx="582" cy="497" r="20" fill="black"/>
<rect width="115.624" height="40" transform="matrix(-0.707107 -0.707106 -0.707107 0.707106 596.46 483.259)" fill="black"/>
<path fill-rule="evenodd" clip-rule="evenodd" d="M428.693 432.824C475.174 432.824 512.855 395.143 512.855 348.662C512.855 302.181 475.174 264.5 428.693 264.5C382.211 264.5 344.531 302.181 344.531 348.662C344.531 395.143 382.211 432.824 428.693 432.824ZM428.693 462.824C491.743 462.824 542.855 411.712 542.855 348.662C542.855 285.612 491.743 234.5 428.693 234.5C365.643 234.5 314.531 285.612 314.531 348.662C314.531 411.712 365.643 462.824 428.693 462.824Z" fill="black"/>
</svg>
