<svg width="673" height="662" viewBox="0 0 673 662" fill="none" xmlns="http://www.w3.org/2000/svg">
<path fill-rule="evenodd" clip-rule="evenodd" d="M153.686 225.774C130.499 260.849 117 302.89 117 348.083C117 470.737 216.43 570.167 339.083 570.167C461.737 570.167 561.167 470.737 561.167 348.083C561.167 225.43 461.737 126 339.083 126C300.667 126 264.528 135.754 233.01 152.922L250.536 170.448C268.487 188.399 268.487 217.504 250.536 235.456L239.455 246.536C221.504 264.488 192.399 264.488 174.448 246.536L153.686 225.774ZM327.978 170.758C331.651 170.532 335.354 170.417 339.083 170.417C392.753 170.417 440.865 194.214 473.443 231.833L423.61 198.617L393.546 258.744L420.399 325.875H452.968L488.487 444.269C456.86 493.293 401.762 525.75 339.083 525.75C334.02 525.75 329.007 525.538 324.051 525.123L372.775 427.676L359.818 336.979H285.717L222.679 311.77L205.302 346.525L217.812 409.079L261.354 452.618L261.351 507.888C202.185 479.055 161.417 418.33 161.417 348.083C161.417 321.344 167.324 295.984 177.904 273.238L228.042 303.667L327.979 220.776L327.978 170.758Z" fill="#C5C5C5"/>
<path d="M7.34023 218.898C-1.58801 210.024 -1.63192 195.592 7.24214 186.664L185.998 6.8173C194.872 -2.11093 209.303 -2.15484 218.232 6.71922L225.809 14.251C234.738 23.1251 234.781 37.5567 225.907 46.4849L47.1519 226.332C38.2779 235.26 23.8463 235.304 14.918 226.43L7.34023 218.898Z" fill="#C5C5C5"/>
<path d="M218.898 225.809C210.024 234.737 195.592 234.781 186.664 225.907L6.81725 47.1515C-2.11098 38.2775 -2.1549 23.8459 6.71916 14.9176L14.251 7.33983C23.1251 -1.5884 37.5567 -1.63232 46.4849 7.24174L226.332 185.997C235.26 194.871 235.304 209.303 226.43 218.231L218.898 225.809Z" fill="#C5C5C5"/>
<rect x="5" y="616" width="668" height="46" rx="14" fill="#C5C5C5"/>
</svg>
