<svg width="673" height="662" viewBox="0 0 673 662" fill="none" xmlns="http://www.w3.org/2000/svg">
<path d="M7.34023 218.898C-1.58801 210.024 -1.63192 195.592 7.24214 186.664L185.998 6.8173C194.872 -2.11093 209.303 -2.15484 218.232 6.71922L225.809 14.251C234.738 23.1251 234.781 37.5567 225.907 46.4849L47.1519 226.332C38.2779 235.26 23.8463 235.304 14.918 226.43L7.34023 218.898Z" fill="#424242"/>
<path d="M218.898 225.809C210.024 234.737 195.592 234.781 186.664 225.907L6.81725 47.1515C-2.11098 38.2775 -2.1549 23.8459 6.71916 14.9176L14.251 7.33983C23.1251 -1.5884 37.5567 -1.63232 46.4849 7.24174L226.332 185.997C235.26 194.871 235.304 209.303 226.43 218.231L218.898 225.809Z" fill="#424242"/>
<rect x="5" y="616" width="668" height="46" rx="14" fill="#424242"/>
<rect x="31" y="332.157" width="237" height="66" rx="14" fill="#424242"/>
<rect x="409" y="332.157" width="237" height="66" rx="14" fill="#424242"/>
<path fill-rule="evenodd" clip-rule="evenodd" d="M175.033 246.897C158.649 263.118 148.5 285.624 148.5 310.5L148.5 314.5H211.5V310.5C211.5 295.864 223.365 284 238 284L452.069 284C466.705 284 478.569 295.864 478.569 310.5V314.5H541.569V310.5C541.569 261.071 501.499 221 452.069 221L262.802 221C261.245 228.215 257.673 235.083 252.084 240.706L238.875 253.995C223.313 269.653 198.005 269.73 182.348 254.167L175.033 246.897ZM478.569 416.5H541.569V421.324C541.569 470.754 501.499 510.824 452.069 510.824H238C188.57 510.824 148.5 470.754 148.5 421.324V416.5H211.5V421.324C211.5 435.96 223.364 447.824 238 447.824L452.069 447.824C466.705 447.824 478.569 435.96 478.569 421.324V416.5Z" fill="#424242"/>
</svg>
